PathFileType	4	(X/Y/Z)	C:\Users\dell\Documents\OpenSim\4.1\20210318\TRC_File\LX_20210318_static_0001.trc
DataRate	CameraRate	NumFrames	NumMarkers	Units	OrigDataRate	OrigDataStartFrame	OrigNumFrames
100.000000	100.000000	4	38	mm	100.000000	225	300
Frame#	Time	Sternum			R.Acromium			L.Acromium			R.Arm			L.Arm			R.Hand			L.Hand			R.ASIS			L.ASIS			V.Sacral			R.Thigh.Upper			R.Thigh.Front			R.Thigh.Rear			R.Knee.Lat			R.Knee.Med			R.Shank.Upper			R.Shank.Front			R.Shank.Rear			R.Ankle.Lat			R.Ankle.Med			R.Heel			R.Toe.Lat			R.Toe.Med			R.Toe.Tip			L.Thigh.Upper			L.Thigh.Front			L.Thigh.Rear			L.Knee.Lat			L.Knee.Med			L.Shank.Upper			L.Shank.Front			L.Shank.Rear			L.Ankle.Lat			L.Ankle.Med			L.Heel			L.Toe.Lat			L.Toe.Med			L.Toe.Tip			
		X1	Y1	Z1	X2	Y2	Z2	X3	Y3	Z3	X4	Y4	Z4	X5	Y5	Z5	X6	Y6	Z6	X7	Y7	Z7	X8	Y8	Z8	X9	Y9	Z9	X10	Y10	Z10	X11	Y11	Z11	X12	Y12	Z12	X13	Y13	Z13	X14	Y14	Z14	X15	Y15	Z15	X16	Y16	Z16	X17	Y17	Z17	X18	Y18	Z18	X19	Y19	Z19	X20	Y20	Z20	X21	Y21	Z21	X22	Y22	Z22	X23	Y23	Z23	X24	Y24	Z24	X25	Y25	Z25	X26	Y26	Z26	X27	Y27	Z27	X28	Y28	Z28	X29	Y29	Z29	X30	Y30	Z30	X31	Y31	Z31	X32	Y32	Z32	X33	Y33	Z33	X34	Y34	Z34	X35	Y35	Z35	X36	Y36	Z36	X37	Y37	Z37	X38	Y38	Z38	

226	2.25	-112.0663528442383	1296.618041992188	-5.930818557739258	-240.1813201904297	1450.594482421875	123.3307189941406	-239.8261108398438	1458.812866210938	-137.5228424072266	-309.74072265625	1426.807006835938	429.758056640625	-292.044677734375	1427.549072265625	-450.0189208984375	-299.9784545898438	1425.323364257813	680.8425903320313	-256.1036376953125	1410.771484375	-682.2861328125	-138.5523071289063	974.0928955078125	130.1890106201172	-122.5366439819336	962.0003051757813	-101.0120086669922	-318.0104064941406	963.3253784179688	-5.343095302581787	-218.4349517822266	646.20703125	169.1516571044922	-155.7457122802734	617.5925903320313	99.61302947998047	-224.6150054931641	554.3020629882813	166.9841918945313	-248.3466339111328	465.0603637695313	169.7691345214844	-251.8204803466797	461.8045959472656	39.89644241333008	-255.9117431640625	408.1647338867188	169.5404968261719	-207.1150207519531	358.094482421875	103.5003051757813	-273.2131042480469	289.2615966796875	175.3695068359375	-292.959228515625	55.7709846496582	154.8322601318359	-276.9799194335938	81.7437744140625	70.24639129638672	-331.1360168457031	25.25611877441406	97.54346466064453	-175.2484893798828	21.12376976013184	199.29150390625	-122.7078094482422	20.36952781677246	108.4569473266602	-83.05532073974609	25.12938499450684	142.5089416503906	-192.0217132568359	667.9085693359375	-163.0800933837891	-149.0412292480469	628.2764282226563	-94.36493682861328	-197.4282989501953	570.512451171875	-160.7483062744141	-218.2467803955078	463.5519104003906	-163.5029754638672	-273.0095520019531	457.814453125	-44.26458358764648	-225.3256378173828	403.0143432617188	-164.2896881103516	-204.3990936279297	357.4820251464844	-97.97831726074219	-242.0559387207031	297.5740356445313	-167.5789031982422	-288.489990234375	53.58074188232422	-150.9110107421875	-273.7421875	75.74160766601563	-62.42612838745117	-339.2826843261719	24.52451133728027	-94.17537689208984	-183.6070709228516	20.89294052124023	-188.4402770996094	-131.6752319335938	22.68147087097168	-102.6661376953125	-92.39307403564453	24.39571952819824	-140.1610260009766	
227	2.26	-112.052116394043	1296.59423828125	-5.910359382629395	-240.1468200683594	1450.58544921875	123.373405456543	-239.7772674560547	1458.822509765625	-137.4965972900391	-309.7049865722656	1426.819458007813	429.7969970703125	-291.9961242675781	1427.5234375	-450.00390625	-299.966064453125	1425.339721679688	680.8819580078125	-256.0130615234375	1410.680419921875	-682.2476196289063	-138.5255737304688	974.0753784179688	130.1621398925781	-122.5352783203125	961.9854736328125	-101.0344619750977	-318.0023498535156	963.3282470703125	-5.361817836761475	-218.4432220458984	646.1956787109375	169.1069946289063	-155.7478179931641	617.5796508789063	99.58383178710938	-224.6490478515625	554.2904663085938	166.9480133056641	-248.3555603027344	465.0712585449219	169.7300567626953	-251.8502807617188	461.8062438964844	39.88714218139648	-255.9235687255859	408.1578063964844	169.5280303955078	-207.1317443847656	358.09375	103.4790115356445	-273.2227783203125	289.2536010742188	175.3601837158203	-292.968017578125	55.75619888305664	154.8228912353516	-276.9957885742188	81.71759796142578	70.24265289306641	-331.1412658691406	25.2481689453125	97.54214477539063	-175.2522125244141	21.12649345397949	199.2907867431641	-122.7098922729492	20.3613166809082	108.4549331665039	-83.06280517578125	25.1274585723877	142.5060272216797	-192.0289154052734	667.9013061523438	-163.0943298339844	-149.0487518310547	628.2550659179688	-94.39143371582031	-197.4929351806641	570.5101318359375	-160.7660217285156	-218.3119964599609	463.5692443847656	-163.5110778808594	-273.0269165039063	457.8258056640625	-44.28437423706055	-225.355224609375	403.0185852050781	-164.3051910400391	-204.4259338378906	357.4932861328125	-97.99563598632813	-242.0794830322266	297.5741577148438	-167.5999603271484	-288.4824829101563	53.59601593017578	-150.9101409912109	-273.7491760253906	75.74137878417969	-62.42848205566406	-339.2881469726563	24.51275444030762	-94.18653106689453	-183.6203918457031	20.88366508483887	-188.4489440917969	-131.6806182861328	22.67724609375	-102.6713943481445	-92.38716125488281	24.40097999572754	-140.1588287353516	
228	2.27	-112.0354766845703	1296.581176757813	-5.879681587219238	-240.1073760986328	1450.580200195313	123.4052200317383	-239.7091522216797	1458.8359375	-137.4592742919922	-309.6719360351563	1426.823120117188	429.8101196289063	-291.9648132324219	1427.440795898438	-449.9564514160156	-299.9486083984375	1425.343383789063	680.9022216796875	-255.9662322998047	1410.56201171875	-682.2258911132813	-138.4972686767578	974.0541381835938	130.1373138427734	-122.5239639282227	961.998779296875	-101.0637512207031	-317.9884033203125	963.33349609375	-5.378218650817871	-218.4437561035156	646.2197875976563	169.0843963623047	-155.732421875	617.59326171875	99.54848480224609	-224.6481018066406	554.2894287109375	166.9167633056641	-248.3636016845703	465.0687866210938	169.7089691162109	-251.8580322265625	461.7971496582031	39.85853576660156	-255.9368286132813	408.1678161621094	169.5171966552734	-207.1355590820313	358.0942993164063	103.4691848754883	-273.232666015625	289.2534484863281	175.3507385253906	-292.9615173339844	55.75603485107422	154.8167724609375	-276.9963684082031	81.73960876464844	70.23334503173828	-331.1342468261719	25.2362174987793	97.56201934814453	-175.2437591552734	21.13550186157227	199.2913208007813	-122.7166213989258	20.35708427429199	108.462028503418	-83.05359649658203	25.13093566894531	142.5202789306641	-192.0575561523438	667.8916625976563	-163.1020812988281	-149.0694580078125	628.2593994140625	-94.40409851074219	-197.5667114257813	570.4860229492188	-160.7433624267578	-218.3486938476563	463.5644836425781	-163.5127563476563	-273.0639343261719	457.8528137207031	-44.31134414672852	-225.3665313720703	403.0365905761719	-164.3084869384766	-204.4476623535156	357.4974975585938	-97.99748229980469	-242.0936889648438	297.56396484375	-167.6042938232422	-288.4795837402344	53.60458374023438	-150.9063720703125	-273.7504577636719	75.74512481689453	-62.42724227905273	-339.2941284179688	24.50478744506836	-94.18589782714844	-183.6229400634766	20.89321708679199	-188.4542541503906	-131.6860656738281	22.67573928833008	-102.6774978637695	-92.38951873779297	24.39707183837891	-140.1663513183594	
229	2.28	-112.0073623657227	1296.565063476563	-5.841101169586182	-240.0720825195313	1450.57861328125	123.4180755615234	-239.6635589599609	1458.846557617188	-137.4359130859375	-309.6371459960938	1426.826782226563	429.8484497070313	-291.9716796875	1427.310302734375	-449.9182739257813	-299.9248046875	1425.322998046875	680.9287109375	-255.9649658203125	1410.419189453125	-682.2037963867188	-138.4872741699219	974.052734375	130.1265106201172	-122.5077667236328	961.9961547851563	-101.0724487304688	-317.9822692871094	963.3409423828125	-5.397579669952393	-218.4612274169922	646.2254638671875	169.0531158447266	-155.7540435791016	617.5940551757813	99.53427886962891	-224.6731872558594	554.3095703125	166.8804626464844	-248.3656463623047	465.0868530273438	169.7059173583984	-251.8616180419922	461.7984008789063	39.85297775268555	-255.9282531738281	408.173828125	169.5023498535156	-207.1345520019531	358.1029357910156	103.4506683349609	-273.2216186523438	289.2606201171875	175.3519744873047	-292.9534606933594	55.77020263671875	154.8226013183594	-276.9917907714844	81.73880767822266	70.23016357421875	-331.1251525878906	25.24146461486816	97.53402709960938	-175.2486877441406	21.12908363342285	199.2961120605469	-122.7174301147461	20.36062622070313	108.476448059082	-83.05905914306641	25.13033676147461	142.5154571533203	-192.0664367675781	667.89599609375	-163.1134643554688	-149.0670318603516	628.2728271484375	-94.43316650390625	-197.6050262451172	570.492919921875	-160.7419891357422	-218.3768463134766	463.573486328125	-163.5091705322266	-273.0998229980469	457.828857421875	-44.30754470825195	-225.3765411376953	403.0400085449219	-164.3254547119141	-204.4532012939453	357.5036010742188	-98.01345825195313	-242.1021728515625	297.57666015625	-167.6159515380859	-288.47802734375	53.5968132019043	-150.9096984863281	-273.7503967285156	75.73764038085938	-62.42678070068359	-339.2903747558594	24.51110649108887	-94.16976165771484	-183.6165008544922	20.8852367401123	-188.4333038330078	-131.6814422607422	22.68498992919922	-102.6699295043945	-92.381591796875	24.39726066589355	-140.1717071533203	
